<?xml version="1.0" encoding="UTF-8" standalone="no"?>
<!-- Created with Inkscape (http://www.inkscape.org/) -->

<svg
   xmlns:dc="http://purl.org/dc/elements/1.1/"
   xmlns:cc="http://creativecommons.org/ns#"
   xmlns:rdf="http://www.w3.org/1999/02/22-rdf-syntax-ns#"
   xmlns:svg="http://www.w3.org/2000/svg"
   xmlns="http://www.w3.org/2000/svg"
   xmlns:sodipodi="http://sodipodi.sourceforge.net/DTD/sodipodi-0.dtd"
   xmlns:inkscape="http://www.inkscape.org/namespaces/inkscape"
   version="1.1"
   id="svg13702"
   xml:space="preserve"
   width="860"
   height="244"
   viewBox="0 0 860.00001 244"
   sodipodi:docname="VI-logo-long.svg"
   inkscape:version="0.92.4 (5da689c313, 2019-01-14)"><metadata
     id="metadata13708"><rdf:RDF><cc:Work
         rdf:about=""><dc:format>image/svg+xml</dc:format><dc:type
           rdf:resource="http://purl.org/dc/dcmitype/StillImage" /><dc:title></dc:title></cc:Work></rdf:RDF></metadata><defs
     id="defs13706"><linearGradient
       x1="0"
       y1="0"
       x2="1"
       y2="0"
       gradientUnits="userSpaceOnUse"
       gradientTransform="matrix(-10.22168,0,0,10.22168,278.21777,159.84375)"
       spreadMethod="pad"
       id="linearGradient13738"><stop
         style="stop-opacity:1;stop-color:#2282b8"
         offset="0"
         id="stop13730" /><stop
         style="stop-opacity:1;stop-color:#2282b8"
         offset="0.04964329"
         id="stop13732" /><stop
         style="stop-opacity:1;stop-color:#64c8ff"
         offset="0.986486"
         id="stop13734" /><stop
         style="stop-opacity:1;stop-color:#64c8ff"
         offset="1"
         id="stop13736" /></linearGradient><linearGradient
       x1="0"
       y1="0"
       x2="1"
       y2="0"
       gradientUnits="userSpaceOnUse"
       gradientTransform="matrix(-4.5e-6,102.74397,102.74397,4.5e-6,285.40723,117.61621)"
       spreadMethod="pad"
       id="linearGradient13764"><stop
         style="stop-opacity:1;stop-color:#0a64a0"
         offset="0"
         id="stop13754" /><stop
         style="stop-opacity:1;stop-color:#0a64a0"
         offset="0.00354502"
         id="stop13756" /><stop
         style="stop-opacity:1;stop-color:#3296c8"
         offset="0.57238977"
         id="stop13758" /><stop
         style="stop-opacity:1;stop-color:#3296c8"
         offset="0.986486"
         id="stop13760" /><stop
         style="stop-opacity:1;stop-color:#3296c8"
         offset="1"
         id="stop13762" /></linearGradient><clipPath
       clipPathUnits="userSpaceOnUse"
       id="clipPath13782"><path
         d="M 0,453.83 H 815.698 V 0 H 0 Z"
         id="path13780"
         inkscape:connector-curvature="0" /></clipPath></defs><sodipodi:namedview
     pagecolor="#ffffff"
     bordercolor="#666666"
     borderopacity="1"
     objecttolerance="10"
     gridtolerance="10"
     guidetolerance="10"
     inkscape:pageopacity="0"
     inkscape:pageshadow="2"
     inkscape:window-width="1888"
     inkscape:window-height="905"
     id="namedview13704"
     showgrid="false"
     inkscape:zoom="0.35950807"
     inkscape:cx="543.79865"
     inkscape:cy="302.55334"
     inkscape:window-x="-8"
     inkscape:window-y="-8"
     inkscape:window-maximized="1"
     inkscape:current-layer="g13710" /><g
     id="g13710"
     inkscape:groupmode="layer"
     inkscape:label="VI-logo完稿 - 副本"
     transform="matrix(1.3333333,0,0,-1.3333333,0,243.99998)"><g
       id="g13917"
       transform="translate(-157.651,-85.755014)"><path
         inkscape:connector-curvature="0"
         id="path13712"
         style="fill:#0a64a0;fill-opacity:1;fill-rule:nonzero;stroke:none"
         d="M 321.986,230.562 H 175.669 v 19.509 h 146.317 z" /><path
         inkscape:connector-curvature="0"
         id="path13714"
         style="fill:#3296c8;fill-opacity:1;fill-rule:nonzero;stroke:none"
         d="m 292.722,206.176 h -87.788 v 14.632 h 87.788 z" /><path
         inkscape:connector-curvature="0"
         id="path13716"
         style="fill:#3296c8;fill-opacity:1;fill-rule:nonzero;stroke:none"
         d="m 204.934,220.808 h 14.631 v -87.79 h -14.631 z" /><g
         id="g13718"><g
           id="g13720"><g
             id="g13726"><g
               id="g13728"><path
                 inkscape:connector-curvature="0"
                 id="path13740"
                 style="fill:url(#linearGradient13738);stroke:none"
                 d="m 278.218,157.404 h -10.222 v 4.878 h 10.222 z" /></g></g></g></g><g
         id="g13742"><g
           id="g13744"><g
             id="g13750"><g
               id="g13752"><path
                 inkscape:connector-curvature="0"
                 id="path13766"
                 style="fill:url(#linearGradient13764);stroke:none"
                 d="m 278.091,220.808 h 14.631 V 117.617 h -14.631 z" /></g></g></g></g><path
         inkscape:connector-curvature="0"
         id="path13768"
         style="fill:#3296c8;fill-opacity:1;fill-rule:nonzero;stroke:none"
         d="m 268.336,133.018 h -63.402 v 14.633 h 63.402 z" /><path
         inkscape:connector-curvature="0"
         id="path13770"
         style="fill:#0a64a0;fill-opacity:1;fill-rule:nonzero;stroke:none"
         d="m 175.651,250.071 h 19.528 V 103.755 h -19.528 z" /><path
         inkscape:connector-curvature="0"
         id="path13772"
         style="fill:#0a64a0;fill-opacity:1;fill-rule:nonzero;stroke:none"
         d="m 302.477,250.071 h 19.51 V 103.755 h -19.51 z" /><path
         inkscape:connector-curvature="0"
         id="path13774"
         style="fill:#0a64a0;fill-opacity:1;fill-rule:nonzero;stroke:none"
         d="M 321.986,103.755 H 175.669 v 19.509 h 146.317 z" /><g
         id="g13776"><g
           clip-path="url(#clipPath13782)"
           id="g13778"><g
             transform="translate(248.8281,167.0937)"
             id="g13784"><path
               inkscape:connector-curvature="0"
               id="path13786"
               style="fill:#64c8ff;fill-opacity:1;fill-rule:nonzero;stroke:none"
               d="m 0,0 c -5.423,0 -9.82,4.396 -9.82,9.819 0,5.425 4.397,9.822 9.82,9.822 5.423,0 9.82,-4.397 9.82,-9.822 C 9.82,4.396 5.423,0 0,0 m -19.511,-9.689 h 39.019 v 39.018 h -39.019 z" /></g><g
             transform="translate(353.4141,120.0811)"
             id="g13788"><path
               inkscape:connector-curvature="0"
               id="path13790"
               style="fill:#666666;fill-opacity:1;fill-rule:nonzero;stroke:none"
               d="m 0,0 5.213,0.507 c 0.314,-1.75 0.951,-3.035 1.91,-3.856 0.959,-0.821 2.254,-1.231 3.883,-1.231 1.724,0 3.025,0.365 3.9,1.096 0.875,0.729 1.313,1.584 1.313,2.561 0,0.627 -0.184,1.161 -0.551,1.602 -0.369,0.44 -1.012,0.824 -1.93,1.149 -0.627,0.218 -2.056,0.604 -4.289,1.159 -2.873,0.712 -4.888,1.587 -6.047,2.625 -1.629,1.46 -2.443,3.241 -2.443,5.34 0,1.352 0.383,2.616 1.148,3.793 0.768,1.177 1.872,2.072 3.315,2.688 1.441,0.616 3.182,0.923 5.223,0.923 3.33,0 5.837,-0.73 7.521,-2.19 1.684,-1.461 2.566,-3.409 2.65,-5.848 l -5.357,-0.235 c -0.229,1.364 -0.721,2.345 -1.475,2.942 -0.755,0.597 -1.886,0.896 -3.394,0.896 -1.557,0 -2.778,-0.319 -3.658,-0.959 -0.567,-0.41 -0.85,-0.96 -0.85,-1.648 0,-0.627 0.266,-1.165 0.797,-1.611 0.676,-0.567 2.316,-1.158 4.924,-1.774 2.605,-0.616 4.533,-1.252 5.783,-1.909 1.25,-0.659 2.226,-1.557 2.934,-2.698 0.705,-1.14 1.058,-2.55 1.058,-4.227 0,-1.521 -0.424,-2.945 -1.267,-4.272 -0.846,-1.328 -2.04,-2.314 -3.584,-2.96 -1.545,-0.645 -3.471,-0.968 -5.776,-0.968 -3.355,0 -5.931,0.775 -7.73,2.326 C 1.424,-5.229 0.35,-2.969 0,0" /></g><g
             transform="translate(383.1699,137.9844)"
             id="g13792"><path
               inkscape:connector-curvature="0"
               id="path13794"
               style="fill:#666666;fill-opacity:1;fill-rule:nonzero;stroke:none"
               d="m 0,0 h 5.359 v -14.373 c 0,-2.281 0.067,-3.76 0.2,-4.436 0.228,-1.086 0.775,-1.958 1.636,-2.615 0.864,-0.658 2.043,-0.987 3.539,-0.987 1.522,0 2.668,0.31 3.442,0.932 0.771,0.622 1.236,1.385 1.392,2.291 0.157,0.905 0.237,2.408 0.237,4.507 V 0 h 5.357 v -13.938 c 0,-3.187 -0.144,-5.438 -0.433,-6.753 -0.292,-1.316 -0.825,-2.425 -1.604,-3.33 -0.777,-0.906 -1.818,-1.627 -3.121,-2.165 -1.305,-0.536 -3.006,-0.804 -5.106,-0.804 -2.535,0 -4.457,0.292 -5.765,0.878 -1.311,0.585 -2.344,1.344 -3.106,2.28 -0.759,0.936 -1.259,1.916 -1.502,2.942 C 0.176,-19.369 0,-17.125 0,-14.156 Z" /></g><g
             transform="translate(419.6621,111.4463)"
             id="g13796"><path
               inkscape:connector-curvature="0"
               id="path13798"
               style="fill:#666666;fill-opacity:1;fill-rule:nonzero;stroke:none"
               d="m 0,0 v 22.049 h -7.875 v 4.489 h 21.09 V 22.049 H 5.357 V 0 Z" /></g><g
             transform="translate(440.0059,137.9844)"
             id="g13800"><path
               inkscape:connector-curvature="0"
               id="path13802"
               style="fill:#666666;fill-opacity:1;fill-rule:nonzero;stroke:none"
               d="m 0,0 h 5.357 v -14.373 c 0,-2.281 0.067,-3.76 0.2,-4.436 0.228,-1.086 0.775,-1.958 1.638,-2.615 0.864,-0.658 2.043,-0.987 3.539,-0.987 1.522,0 2.668,0.31 3.44,0.932 0.771,0.622 1.236,1.385 1.394,2.291 0.157,0.905 0.235,2.408 0.235,4.507 V 0 h 5.359 v -13.938 c 0,-3.187 -0.144,-5.438 -0.435,-6.753 -0.29,-1.316 -0.823,-2.425 -1.602,-3.33 -0.779,-0.906 -1.82,-1.627 -3.123,-2.165 -1.303,-0.536 -3.004,-0.804 -5.106,-0.804 -2.533,0 -4.455,0.292 -5.765,0.878 -1.309,0.585 -2.344,1.344 -3.104,2.28 -0.759,0.936 -1.261,1.916 -1.502,2.942 C 0.174,-19.369 0,-17.125 0,-14.156 Z" /></g><g
             transform="translate(490.5039,111.4463)"
             id="g13804"><path
               inkscape:connector-curvature="0"
               id="path13806"
               style="fill:#999999;fill-opacity:1;fill-rule:nonzero;stroke:none"
               d="m 0,0 v 22.049 h -7.873 v 4.489 H 13.215 V 22.049 H 5.359 V 0 Z" /></g><g
             transform="translate(510.8848,111.4463)"
             id="g13808"><path
               inkscape:connector-curvature="0"
               id="path13810"
               style="fill:#999999;fill-opacity:1;fill-rule:nonzero;stroke:none"
               d="M 0,0 V 26.538 H 19.678 V 22.049 H 5.357 V 16.166 H 18.682 V 11.694 H 5.357 V 4.472 H 20.184 V 0 Z" /></g><g
             transform="translate(556.3008,121.2041)"
             id="g13812"><path
               inkscape:connector-curvature="0"
               id="path13814"
               style="fill:#999999;fill-opacity:1;fill-rule:nonzero;stroke:none"
               d="M 0,0 5.195,-1.647 C 4.398,-4.544 3.074,-6.695 1.221,-8.102 -0.631,-9.508 -2.982,-10.21 -5.83,-10.21 c -3.524,0 -6.42,1.203 -8.69,3.611 -2.267,2.408 -3.402,5.7 -3.402,9.875 0,4.417 1.141,7.848 3.422,10.291 2.279,2.445 5.279,3.666 8.996,3.666 3.246,0 5.883,-0.96 7.91,-2.879 C 3.613,13.221 4.52,11.591 5.123,9.467 L -0.182,8.2 c -0.314,1.376 -0.968,2.462 -1.964,3.259 -0.995,0.796 -2.206,1.194 -3.629,1.194 -1.967,0 -3.563,-0.706 -4.789,-2.118 -1.225,-1.412 -1.836,-3.699 -1.836,-6.86 0,-3.356 0.603,-5.745 1.81,-7.169 1.205,-1.425 2.776,-2.137 4.705,-2.137 1.424,0 2.651,0.453 3.676,1.359 C -1.184,-3.367 -0.447,-1.943 0,0" /></g><g
             transform="translate(569.8203,111.4463)"
             id="g13816"><path
               inkscape:connector-curvature="0"
               id="path13818"
               style="fill:#999999;fill-opacity:1;fill-rule:nonzero;stroke:none"
               d="M 0,0 V 26.538 H 5.357 V 16.093 h 10.5 v 10.445 h 5.358 V 0 H 15.857 V 11.604 H 5.357 V 0 Z" /></g><g
             transform="translate(600.3379,111.4463)"
             id="g13820"><path
               inkscape:connector-curvature="0"
               id="path13822"
               style="fill:#999999;fill-opacity:1;fill-rule:nonzero;stroke:none"
               d="M 0,0 V 26.538 H 5.213 L 16.074,8.816 v 17.722 h 4.979 V 0 H 15.676 L 4.977,17.306 V 0 Z" /></g><g
             transform="translate(635.1992,124.7334)"
             id="g13824"><path
               inkscape:connector-curvature="0"
               id="path13826"
               style="fill:#999999;fill-opacity:1;fill-rule:nonzero;stroke:none"
               d="m 0,0 c 0,-3.005 0.693,-5.283 2.082,-6.834 1.387,-1.551 3.15,-2.326 5.285,-2.326 2.137,0 3.891,0.769 5.26,2.308 1.369,1.54 2.055,3.847 2.055,6.924 0,3.042 -0.668,5.311 -2,6.807 C 11.348,8.376 9.576,9.124 7.367,9.124 5.16,9.124 3.379,8.366 2.027,6.853 0.676,5.338 0,3.054 0,0 m -5.521,-0.181 c 0,2.703 0.404,4.972 1.212,6.807 0.604,1.352 1.428,2.564 2.471,3.639 1.045,1.074 2.188,1.87 3.432,2.389 1.652,0.7 3.558,1.05 5.72,1.05 3.911,0 7.038,-1.213 9.385,-3.639 2.348,-2.425 3.522,-5.798 3.522,-10.119 0,-4.285 -1.164,-7.636 -3.494,-10.056 -2.329,-2.42 -5.444,-3.629 -9.34,-3.629 -3.948,0 -7.086,1.203 -9.414,3.611 -2.33,2.407 -3.494,5.723 -3.494,9.947" /></g><g
             transform="translate(663.4531,111.4463)"
             id="g13828"><path
               inkscape:connector-curvature="0"
               id="path13830"
               style="fill:#999999;fill-opacity:1;fill-rule:nonzero;stroke:none"
               d="M 0,0 V 26.321 H 5.359 V 4.472 H 18.684 V 0 Z" /></g><g
             transform="translate(694.0977,124.7334)"
             id="g13832"><path
               inkscape:connector-curvature="0"
               id="path13834"
               style="fill:#999999;fill-opacity:1;fill-rule:nonzero;stroke:none"
               d="m 0,0 c 0,-3.005 0.693,-5.283 2.082,-6.834 1.387,-1.551 3.15,-2.326 5.285,-2.326 2.137,0 3.891,0.769 5.26,2.308 1.369,1.54 2.055,3.847 2.055,6.924 0,3.042 -0.668,5.311 -2,6.807 C 11.348,8.376 9.576,9.124 7.367,9.124 5.16,9.124 3.379,8.366 2.027,6.853 0.676,5.338 0,3.054 0,0 m -5.521,-0.181 c 0,2.703 0.404,4.972 1.212,6.807 0.604,1.352 1.428,2.564 2.471,3.639 1.045,1.074 2.188,1.87 3.432,2.389 1.652,0.7 3.558,1.05 5.72,1.05 3.911,0 7.038,-1.213 9.385,-3.639 2.348,-2.425 3.522,-5.798 3.522,-10.119 0,-4.285 -1.164,-7.636 -3.494,-10.056 -2.329,-2.42 -5.444,-3.629 -9.34,-3.629 -3.948,0 -7.086,1.203 -9.414,3.611 -2.33,2.407 -3.494,5.723 -3.494,9.947" /></g><g
             transform="translate(734.5527,121.2041)"
             id="g13836"><path
               inkscape:connector-curvature="0"
               id="path13838"
               style="fill:#999999;fill-opacity:1;fill-rule:nonzero;stroke:none"
               d="M 0,0 V 4.471 H 11.551 V -6.102 C 10.428,-7.187 8.801,-8.144 6.672,-8.971 4.541,-9.797 2.385,-10.21 0.199,-10.21 c -2.775,0 -5.195,0.582 -7.258,1.746 -2.064,1.165 -3.615,2.83 -4.652,4.997 -1.039,2.166 -1.557,4.523 -1.557,7.069 0,2.763 0.579,5.219 1.737,7.368 1.16,2.148 2.855,3.795 5.088,4.942 1.701,0.881 3.818,1.321 6.353,1.321 3.295,0 5.869,-0.691 7.721,-2.073 1.853,-1.382 3.045,-3.292 3.576,-5.729 L 5.885,8.436 c -0.375,1.302 -1.078,2.332 -2.11,3.085 -1.031,0.755 -2.32,1.132 -3.865,1.132 -2.342,0 -4.203,-0.742 -5.584,-2.226 -1.383,-1.485 -2.074,-3.688 -2.074,-6.608 0,-3.15 0.701,-5.512 2.102,-7.087 1.398,-1.575 3.234,-2.363 5.501,-2.363 1.124,0 2.249,0.221 3.377,0.661 1.129,0.441 2.096,0.975 2.905,1.603 V 0 Z" /></g><g
             transform="translate(761.7227,111.4463)"
             id="g13840"><path
               inkscape:connector-curvature="0"
               id="path13842"
               style="fill:#999999;fill-opacity:1;fill-rule:nonzero;stroke:none"
               d="m 0,0 v 11.169 l -9.723,15.369 h 6.284 L 2.805,16.039 8.924,26.538 h 6.174 L 5.34,11.133 V 0 Z" /></g><g
             transform="translate(633.0049,212.877)"
             id="g13844"><path
               inkscape:connector-curvature="0"
               id="path13846"
               style="fill:#666666;fill-opacity:1;fill-rule:nonzero;stroke:none"
               d="m 0,0 c -2.732,4.198 -9.076,10.444 -14.543,14.641 l 7.613,6.638 C -1.658,17.277 5.174,11.519 8.104,7.224 Z m -2.537,-25.769 c -3.025,4.295 -9.858,10.541 -15.52,14.934 l 7.418,6.637 C -5.074,-8.101 2.148,-14.153 5.369,-18.35 Z M 21.961,-39.336 V -63.932 H 10.543 v 22.548 l -29.479,-5.076 -1.853,11.029 31.332,5.369 V 27.136 H 21.961 V -28.11 l 9.664,1.658 1.855,-10.833 z m -48.119,4.198 c -1.172,2.733 -3.514,6.831 -5.856,10.737 V -64.03 H -43.24 v 35.138 c -3.221,-7.515 -6.832,-14.446 -10.639,-19.325 -1.074,3.319 -3.611,8.101 -5.367,11.029 5.465,6.247 10.932,16.691 14.445,26.159 h -13.176 v 10.835 h 14.737 v 11.029 c -3.805,-0.586 -7.416,-1.171 -11.03,-1.562 -0.388,2.635 -1.853,6.442 -3.123,8.979 11.127,1.66 23.33,4.685 31.43,8.004 l 6.541,-9.468 c -3.808,-1.464 -8.101,-2.635 -12.592,-3.611 V -0.194 h 12.883 v -10.835 h -12.883 v -0.781 c 2.83,-2.734 10.834,-11.908 12.688,-14.153 z" /></g><g
             transform="translate(734.915,193.3232)"
             id="g13848"><path
               inkscape:connector-curvature="0"
               id="path13850"
               style="fill:#666666;fill-opacity:1;fill-rule:nonzero;stroke:none"
               d="M 0,0 C 2.725,-6.423 6.617,-12.262 11.482,-17.226 16.543,-12.359 20.727,-6.619 23.648,0 Z m 38.342,7.784 c -3.697,-13.526 -9.926,-24.134 -18.1,-32.308 6.324,-4.476 13.819,-7.687 22.479,-9.829 -2.432,-2.335 -5.741,-7.006 -7.395,-10.023 -9.439,2.822 -17.517,6.813 -24.232,12.262 -7.59,-5.255 -16.153,-9.148 -25.592,-11.971 -1.266,3.114 -4.088,7.981 -6.229,10.512 8.563,2.044 16.446,5.156 23.258,9.536 -5.742,6.519 -10.316,14.207 -13.818,23.161 L -8.369,0 H -13.43 V 10.412 H 5.742 V 22.09 H -15.182 V 32.794 H 5.742 V 46.711 H 17.225 V 32.794 H 39.023 V 22.09 H 17.225 V 10.412 h 11.677 l 2.043,0.486 z M -15.57,-5.353 c -3.407,-0.972 -6.909,-1.946 -10.412,-2.822 v -23.258 c 0,-5.645 -1.071,-8.369 -4.379,-10.217 -3.211,-1.753 -7.883,-2.044 -14.696,-2.044 -0.486,2.92 -1.945,7.493 -3.308,10.509 3.795,-0.097 7.785,-0.097 9.051,-0.097 1.459,0 1.849,0.486 1.849,1.947 v 20.046 l -9.441,-2.335 -3.016,10.995 c 3.6,0.683 7.785,1.655 12.457,2.823 v 17.224 h -11.191 v 10.706 h 11.191 v 18.488 h 11.483 V 28.124 h 9.537 V 17.418 h -9.537 V 3.017 l 8.953,2.238 z" /></g><g
             transform="translate(419.1318,169.6133)"
             id="g13852"><path
               inkscape:connector-curvature="0"
               id="path13854"
               style="fill:#0a64a0;fill-opacity:1;fill-rule:nonzero;stroke:none"
               d="m 0,0 c 7.488,-3.646 18.127,-9.456 23.742,-13.692 l -9.064,-6.797 c -4.924,4.136 -15.367,10.343 -23.149,14.48 z m 24.43,32.015 h -46.297 l 2.265,-1.872 c -3.744,-1.872 -7.683,-3.743 -11.722,-5.418 l 19.898,0.789 c 4.137,1.969 8.176,3.94 11.821,6.008 L 8.473,24.527 C -3.053,18.716 -15.465,13.692 -27.877,9.555 l 28.369,1.182 c -1.379,1.084 -2.855,2.166 -4.137,3.153 l 8.768,5.319 C 11.33,14.678 19.898,8.077 23.937,3.546 L 14.58,-2.267 C 13.201,-0.592 11.23,1.281 9.064,3.447 L -13.297,2.267 V -9.556 c 0,-5.318 -1.084,-8.274 -5.32,-9.948 -4.137,-1.576 -9.555,-1.675 -16.746,-1.675 -0.492,3.251 -2.463,7.783 -4.039,10.738 5.023,-0.198 11.033,-0.296 12.707,-0.198 1.675,0 2.07,0.394 2.07,1.478 V 1.576 c -26.598,-1.477 -30.932,-1.97 -34.184,-3.054 -0.295,1.872 -1.673,6.798 -2.461,9.457 3.94,0.395 8.077,1.477 14.481,3.545 2.955,0.986 8.963,3.055 16.252,5.913 -16.549,-0.987 -19.602,-1.478 -21.67,-2.267 -0.494,1.97 -1.873,6.601 -2.857,9.26 2.265,0.295 4.431,0.985 7.388,2.069 2.166,0.787 7.289,2.757 12.707,5.516 h -30.832 v 8.865 h 38.811 v 3.843 h -28.864 v 8.372 h 28.864 v 3.744 h -34.084 v 8.472 h 34.084 v 5.417 h 11.82 V 65.311 H 19.604 V 56.839 H -15.17 V 53.095 H 14.58 V 44.723 H -15.17 V 40.88 h 39.6 z M -32.9,-4.334 c -6.6,-6.206 -16.944,-12.215 -25.414,-15.959 -1.971,2.168 -6.207,6.206 -8.768,7.98 8.57,2.956 18.025,7.388 23.346,12.115 z" /></g><g
             transform="translate(541.1123,229.3652)"
             id="g13856"><path
               inkscape:connector-curvature="0"
               id="path13858"
               style="fill:#0a64a0;fill-opacity:1;fill-rule:nonzero;stroke:none"
               d="m 0,0 h -39.9 l 8.718,-3.077 c -1.025,-1.538 -2.154,-3.18 -3.384,-4.717 h 22.361 l 1.744,0.41 6.871,-4.104 c -4.101,-6.359 -10.154,-11.897 -17.129,-16.718 6.461,-2.462 13.641,-4.309 20.719,-5.642 z m -41.029,-16.821 c 2.668,-2.36 5.847,-4.616 9.541,-6.461 3.896,1.845 7.179,4.101 10.154,6.461 z M 0,-66.568 v 31.18 c -2.051,-2.358 -4.309,-5.639 -5.436,-7.794 -8.923,1.846 -17.642,4.923 -25.541,9.026 -2.666,-1.436 -5.435,-2.667 -8.205,-3.898 8.104,-1.744 17.745,-4.717 23.489,-7.282 l -4.924,-7.487 c -6.051,2.768 -16.924,6.461 -25.539,8.308 l 3.793,5.232 c -5.537,-2.155 -11.282,-3.899 -16.821,-5.232 -0.82,2.359 -2.668,5.846 -4.412,8.307 v -30.36 h 48.518 c -10.258,3.692 -26.873,7.385 -40.414,8.923 l 5.539,7.899 c 13.848,-1.437 31.182,-5.13 41.644,-8.72 l -5.025,-8.102 z M -63.596,0 v -34.36 c 7.387,1.435 15.08,3.589 22.055,6.359 -2.668,1.949 -5.129,3.897 -7.283,5.949 -2.051,-1.743 -4.205,-3.283 -6.256,-4.616 -1.848,1.948 -5.744,5.54 -8.002,7.18 8.309,4.718 16.617,11.898 21.643,19.488 z M 12.309,10.976 V -81.031 H 0 v 3.693 h -63.596 v -3.693 h -11.691 v 92.007 z" /></g></g></g></g></g></svg>