<?xml version="1.0" encoding="UTF-8" standalone="no"?>
<svg
   xmlns:dc="http://purl.org/dc/elements/1.1/"
   xmlns:cc="http://creativecommons.org/ns#"
   xmlns:rdf="http://www.w3.org/1999/02/22-rdf-syntax-ns#"
   xmlns:svg="http://www.w3.org/2000/svg"
   xmlns="http://www.w3.org/2000/svg"
   id="svg8"
   version="1.1"
   viewBox="0 0 210 297"
   height="297mm"
   width="210mm">
  <defs
     id="defs2" />
  <metadata
     id="metadata5">
    <rdf:RDF>
      <cc:Work
         rdf:about="">
        <dc:format>image/svg+xml</dc:format>
        <dc:type
           rdf:resource="http://purl.org/dc/dcmitype/StillImage" />
        <dc:title></dc:title>
      </cc:Work>
    </rdf:RDF>
  </metadata>
  <g
     id="layer1">
    <rect
       id="rect143"
       height="75.785248"
       width="154.1246"
       x="17.843287"
       y="77.656349"
       style="fill:#3f3d56;stroke-width:0.17216691" />
    <path
       id="path145"
       d="m 171.96789,83.485986 v -2.082012 h -4.73913 v -3.747622 h -2.06049 v 3.747622 H 24.642902 v -3.747622 h -2.060489 v 3.747622 h -4.739127 v 2.082012 h 4.739127 v 64.125974 h -4.739127 v 2.08201 h 4.739127 v 3.74763 h 2.060489 v -3.74763 H 165.16827 v 3.74763 h 2.06049 v -3.74763 h 4.73913 v -2.08201 h -4.73913 V 83.485986 Z m -6.79961,64.125974 H 24.642902 V 83.485986 H 165.16827 Z"
       style="opacity:0.1;stroke-width:0.17216691" />
    <rect
       id="rect147"
       height="23.35795"
       width="24.301651"
       y="87.650009"
       x="85.965904"
       style="fill:#d0cde1;stroke-width:0.17216691" />
    <rect
       id="rect149"
       height="14.510066"
       width="18.778549"
       y="90.440407"
       x="88.727455"
       style="fill:#293a80;stroke-width:0.17216691" />
    <rect
       id="rect151"
       height="6.6520524"
       width="6.5832863"
       y="92.824966"
       x="92.859642"
       style="fill:#f2f2f2;stroke-width:0.17216691" />
    <path
       id="path153"
       d="m 95.379815,94.488414 v 8.077506 h 7.994005 v -8.077506 z m 7.647255,7.727126 h -7.300515 v -7.376764 h 7.300515 z"
       style="fill:#3f3d56;stroke-width:0.17216691" />
    <rect
       id="rect155"
       height="0.54320741"
       width="10.21426"
       y="106.39069"
       x="88.708855"
       style="fill:#f2f2f2;stroke-width:0.17216691" />
    <ellipse
       ry="1.0864165"
       rx="1.0751855"
       id="circle157"
       cy="89.008034"
       cx="98.11673"
       style="fill:#3f3d56;stroke-width:0.17216691" />
    <rect
       id="rect159"
       height="23.35795"
       width="24.301651"
       y="121.3392"
       x="95.131264"
       style="fill:#d0cde1;stroke-width:0.17216691" />
    <rect
       id="rect161"
       height="14.510066"
       width="18.778549"
       y="124.12959"
       x="97.892815"
       style="fill:#293a80;stroke-width:0.17216691" />
    <rect
       id="rect163"
       height="0.54320741"
       width="10.21426"
       y="140.35149"
       x="97.874214"
       style="fill:#f2f2f2;stroke-width:0.17216691" />
    <rect
       id="rect165"
       height="0.54320741"
       width="10.21426"
       y="141.98111"
       x="97.874214"
       style="fill:#f2f2f2;stroke-width:0.17216691" />
    <ellipse
       ry="2.172833"
       rx="2.1503711"
       id="circle167"
       cy="131.38855"
       cx="101.23417"
       style="fill:#3f3d56;stroke-width:0.17216691" />
    <ellipse
       ry="2.172833"
       rx="2.1503711"
       id="circle169"
       cy="131.38855"
       cx="107.28208"
       style="fill:#f2f2f2;stroke-width:0.17216691" />
    <ellipse
       ry="2.172833"
       rx="2.1503711"
       id="circle171"
       cy="131.38855"
       cx="113.33"
       style="fill:#ff6584;stroke-width:0.17216691" />
    <ellipse
       ry="1.0864165"
       rx="1.0751855"
       id="circle173"
       cy="122.69722"
       cx="107.28208"
       style="fill:#3f3d56;stroke-width:0.17216691" />
    <rect
       id="rect175"
       height="23.35795"
       width="24.301651"
       y="114.04102"
       x="57.939007"
       style="fill:#d0cde1;stroke-width:0.17216691" />
    <rect
       id="rect177"
       height="14.510066"
       width="18.778549"
       y="116.83141"
       x="60.700558"
       style="fill:#293a80;stroke-width:0.17216691" />
    <ellipse
       ry="4.6067743"
       rx="4.5591512"
       id="circle179"
       cy="125.78221"
       cx="68.839455"
       style="fill:#f2f2f2;stroke-width:0.17216691" />
    <path
       id="path181"
       d="m 70.183251,129.33553 a 5.7161085,5.7758164 0 1 1 5.716109,-5.77581 5.7225758,5.7823513 0 0 1 -5.716109,5.77581 z m 0,-11.3416 a 5.5082512,5.565788 0 1 0 5.508252,5.56579 5.5144479,5.5720494 0 0 0 -5.508252,-5.56579 z"
       style="fill:#3f3d56;stroke-width:0.17216691" />
    <rect
       id="rect183"
       height="0.54320741"
       width="10.21426"
       y="134.41132"
       x="60.681961"
       style="fill:#f2f2f2;stroke-width:0.17216691" />
    <rect
       id="rect185"
       height="0.54320741"
       width="14.246205"
       y="132.78169"
       x="60.681961"
       style="fill:#f2f2f2;stroke-width:0.17216691" />
    <ellipse
       ry="1.0864165"
       rx="1.0751855"
       id="circle187"
       cy="115.39904"
       cx="70.089836"
       style="fill:#3f3d56;stroke-width:0.17216691" />
    <rect
       id="rect189"
       height="23.35795"
       width="24.301651"
       y="87.233604"
       x="31.228962"
       style="fill:#d0cde1;stroke-width:0.17216691" />
    <rect
       id="rect191"
       height="14.510066"
       width="18.778549"
       y="90.02401"
       x="33.990513"
       style="fill:#293a80;stroke-width:0.17216691" />
    <rect
       id="rect193"
       height="1.2096586"
       width="4.0397863"
       y="101.38323"
       x="41.359894"
       style="fill:#3f3d56;stroke-width:0.17216691" />
    <rect
       id="rect195"
       height="0.51842463"
       width="13.807626"
       y="91.965179"
       x="36.475975"
       style="fill:#3f3d56;stroke-width:0.17216691" />
    <rect
       id="rect197"
       height="0.51842463"
       width="13.807626"
       y="93.606857"
       x="36.475975"
       style="fill:#3f3d56;stroke-width:0.17216691" />
    <rect
       id="rect199"
       height="0.51842463"
       width="13.807626"
       y="95.248543"
       x="36.475975"
       style="fill:#3f3d56;stroke-width:0.17216691" />
    <rect
       id="rect201"
       height="0.51842463"
       width="13.807626"
       y="96.890221"
       x="36.475975"
       style="fill:#3f3d56;stroke-width:0.17216691" />
    <rect
       id="rect203"
       height="0.51842463"
       width="13.807626"
       y="98.531898"
       x="36.475975"
       style="fill:#3f3d56;stroke-width:0.17216691" />
    <rect
       id="rect205"
       height="0.54320741"
       width="10.21426"
       y="105.97429"
       x="33.971912"
       style="fill:#f2f2f2;stroke-width:0.17216691" />
    <rect
       id="rect207"
       height="0.54320741"
       width="14.246205"
       y="107.33231"
       x="33.971912"
       style="fill:#f2f2f2;stroke-width:0.17216691" />
    <ellipse
       ry="1.0864165"
       rx="1.0751855"
       id="circle209"
       cy="88.591629"
       cx="43.379787"
       style="fill:#3f3d56;stroke-width:0.17216691" />
    <path
       id="path211"
       d="m 129.99237,102.49272 17.59979,1.30663 4.9772,0.36951 -0.30907,-0.31231 0.93472,13.66182 0.46737,6.83091 c 0.0189,0.276 0.0382,0.55196 0.0566,0.82799 0.0153,0.22948 0.0778,0.45058 -0.19118,0.50722 -0.53491,0.11261 -1.09188,0.1595 -1.63378,0.2286 q -1.65227,0.21069 -3.31198,0.35458 a 83.934884,84.811631 0 0 1 -13.30877,0.0843 q -1.66093,-0.12291 -3.31611,-0.31282 c -0.41037,-0.047 -0.91973,-0.0647 -1.06958,-0.52967 -0.15453,-0.47943 -0.18105,-1.02444 -0.2509,-1.52187 q -0.46677,-3.32428 -0.63617,-6.68264 a 75.880436,76.673049 0 0 1 0.46764,-13.3706 q 0.0995,-0.81459 0.21732,-1.62668 c 0.0567,-0.39319 -0.53878,-0.56293 -0.59607,-0.16604 a 76.514817,77.314057 0 0 0 -0.76364,13.84527 q 0.11976,3.47375 0.55041,6.92699 0.10896,0.8722 0.23662,1.74189 c 0.0678,0.46134 0.0845,1.00539 0.35628,1.40184 0.26217,0.38248 0.70244,0.50518 1.1351,0.56346 0.55067,0.0742 1.10499,0.12733 1.65784,0.18184 a 83.897915,84.774275 0 0 0 13.81052,0.20642 q 1.73709,-0.11891 3.46829,-0.31053 0.85282,-0.0945 1.70359,-0.20659 0.41641,-0.0549 0.83234,-0.11353 a 3.8322922,3.8723226 0 0 0 0.76502,-0.13459 c 0.52082,-0.18973 0.52064,-0.69734 0.48828,-1.17037 l -0.12038,-1.75948 -0.24076,-3.51895 -0.97013,-14.17931 -0.12039,-1.75948 a 0.31816161,0.32148499 0 0 0 -0.30907,-0.3123 l -17.59979,-1.30663 -4.9772,-0.36951 c -0.39687,-0.0295 -0.39501,0.59527 0,0.6246 z"
       style="fill:#d0cde1;stroke-width:0.17216691" />
    <path
       id="path213"
       d="m 137.53465,109.86659 c 0.0889,-0.23841 -0.13459,0.2751 -0.0224,0.0479 0.0298,-0.0604 0.0577,-0.12142 0.0893,-0.18092 a 3.4148752,3.4505454 0 0 1 0.20892,-0.34299 c 0.0759,-0.10977 0.19112,-0.1521 -0.0332,0.0388 a 1.6173591,1.6342533 0 0 0 0.13017,-0.15245 3.8010585,3.8407627 0 0 1 0.33431,-0.32751 c 0.0847,-0.0735 0.24515,-0.13601 -0.0419,0.0267 0.0567,-0.0322 0.10942,-0.0804 0.16363,-0.1172 q 0.16677,-0.1133 0.344,-0.20969 0.0886,-0.0482 0.17937,-0.0921 c 0.10279,-0.0496 0.27396,-0.0667 -0.0497,0.017 0.13891,-0.0359 0.27334,-0.10233 0.41228,-0.14218 q 0.1771,-0.0508 0.35812,-0.0855 c 0.1078,-0.0205 0.30344,-0.005 -0.0647,0.004 0.0658,-0.002 0.1332,-0.0144 0.19908,-0.0189 a 3.7579384,3.7971922 0 0 1 0.39886,-0.006 c 0.0665,0.003 0.13244,0.009 0.19878,0.0132 0.22039,0.0133 -0.33355,-0.0618 -7e-5,0.002 a 3.3659694,3.4011288 0 0 1 0.38697,0.0986 1.4730036,1.48839 0 0 0 0.18932,0.0671 l -0.171,-0.0744 q 0.0629,0.0276 0.12469,0.0578 a 3.4402478,3.4761831 0 0 1 0.35625,0.20136 c 0.0571,0.0369 0.11179,0.077 0.16782,0.11552 0.17595,0.12091 -0.2358,-0.20352 0.0137,0.0175 q 0.127,0.11249 0.24363,0.23627 0.07,0.0742 0.13614,0.15207 c 0.0742,0.0873 0.13092,0.24674 -0.0238,-0.039 0.14163,0.26158 0.31863,0.49884 0.45202,0.76852 0.11377,0.23002 -0.10369,-0.28571 -0.0173,-0.0435 0.0233,0.0653 0.0483,0.12978 0.0703,0.19557 q 0.066,0.19742 0.11382,0.4004 c 0.032,0.13552 0.0476,0.27388 0.0771,0.4095 -0.0811,-0.37328 -0.0218,-0.15736 -0.0138,-0.0559 q 0.0109,0.1384 0.0131,0.2773 0.003,0.17331 -0.008,0.34652 c -0.004,0.0676 -0.0194,0.13949 -0.0185,0.20699 -0.005,-0.35046 0.0251,-0.17592 0.004,-0.0582 a 3.8848033,3.9253822 0 0 1 -0.096,0.40401 q -0.0294,0.0998 -0.0641,0.19788 -0.0308,0.087 -0.065,0.17269 0.0996,-0.23457 0.0159,-0.0446 c -0.3414,0.68993 -0.76675,1.33323 -1.10254,2.02556 a 9.1464908,9.2420311 0 0 0 -0.80151,5.56609 1.2368877,1.2498077 0 0 0 0.56815,0.74657 1.2623957,1.2755821 0 0 0 0.95263,0.12593 c 0.69684,-0.22787 0.97081,-0.84264 0.86347,-1.53668 -0.0378,-0.24449 0.0198,0.21801 -0.005,-0.0282 -0.0106,-0.10558 -0.0212,-0.21097 -0.0286,-0.31684 q -0.0221,-0.31744 -0.018,-0.63591 0.003,-0.27276 0.026,-0.54476 a 1.5979588,1.6146504 0 0 1 0.0325,-0.31653 c -1.7e-4,7e-4 -0.0398,0.25116 -0.0129,0.10698 0.0111,-0.0595 0.019,-0.11974 0.0296,-0.17938 a 7.6378707,7.7176525 0 0 1 0.30701,-1.18622 c 0.0297,-0.0859 0.0621,-0.1706 0.0934,-0.25586 0.0825,-0.22507 -0.0859,0.18068 0.0139,-0.0372 0.089,-0.19431 0.18109,-0.38608 0.28243,-0.57419 0.42559,-0.79002 0.90696,-1.53023 1.21701,-2.37997 a 4.9422294,4.9938537 0 0 0 0.27432,-2.08205 c -0.1147,-1.45695 -0.72606,-2.93522 -1.86548,-3.87853 a 4.865476,4.9162987 0 0 0 -4.29847,-0.98967 5.1393683,5.1930519 0 0 0 -3.60376,3.22256 c -0.22838,0.61273 0.25336,1.39626 0.86348,1.53668 0.70327,0.16185 1.27626,-0.21645 1.52078,-0.8725 z"
       style="fill:#d0cde1;stroke-width:0.17216691" />
    <path
       id="path215"
       d="m 141.85392,124.74983 a 1.0276483,1.0383826 0 1 0 -1.02765,-1.03838 1.0392162,1.0500713 0 0 0 1.02765,1.03838 z"
       style="fill:#d0cde1;stroke-width:0.17216691" />
    <path
       id="path221"
       d="m 158.88378,129.60256 -0.82419,2.49841 c 0,0 -5.15123,6.03784 -1.44235,6.87064 3.70888,0.83281 4.12098,-6.45424 4.12098,-6.45424 l 1.03025,-2.08201 z"
       style="fill:#ffb8b8;stroke-width:0.17216691" />
    <path
       id="path223"
       d="m 164.65315,99.413381 c 0,0 -1.23629,-0.208196 -1.64839,4.788629 -0.4121,4.99682 -0.61815,13.74128 -0.61815,13.74128 l -4.73912,12.28387 5.97542,1.87381 2.88468,-13.94948 z"
       style="fill:#575a89;stroke-width:0.17216691" />
    <polygon
       transform="matrix(0.17127471,0,0,0.17306377,17.843286,77.656352)"
       id="polygon225"
       points="837.912,578.057 870.394,578.057 869.191,555.199 841.521,555.199 "
       style="fill:#ffb8b8" />
    <polygon
       transform="matrix(0.17127471,0,0,0.17306377,17.843286,77.656352)"
       id="polygon227"
       points="943.778,611.742 965.433,614.148 965.433,578.057 946.185,580.463 "
       style="fill:#ffb8b8" />
    <path
       id="path229"
       d="m 164.24105,122.10731 -4.73912,27.48257 1.23629,24.98414 h 6.38752 v -22.69393 l 6.18147,-11.65927 4.94517,14.57409 1.2363,24.35954 7.00566,-1.24921 -1.6484,-23.73494 c 0,0 -1.23629,-31.64658 -2.47259,-32.06299 -1.23629,-0.4164 -18.1323,0 -18.1323,0 z"
       style="fill:#2f2e41;stroke-width:0.17216691" />
    <path
       id="path231"
       d="m 162.59266,176.44783 c 0,0 0,-2.08201 -1.64839,-0.8328 -1.64839,1.24921 -3.70888,3.53942 -3.70888,3.53942 0,0 -7.82986,4.37222 -2.26654,4.99682 5.56332,0.62461 9.06615,-2.91481 9.06615,-2.91481 l 0.61815,0.6246 c 0,0 3.29678,-0.6246 3.29678,-1.45741 a 15.90962,16.075805 0 0 0 -0.20604,-2.08201 c 0,0 -0.43338,-3.53156 -0.93786,-2.80679 -0.50448,0.72478 -3.38917,2.18219 -4.21337,0.93298 z"
       style="fill:#2f2e41;stroke-width:0.17216691" />
    <path
       id="path233"
       d="m 183.40361,182.27747 c 0,0 -3.70889,-1.87381 -4.53308,-0.2082 -0.82419,1.66562 -1.44234,4.99683 -1.44234,4.99683 0,0 -2.67864,5.20502 2.06049,4.78863 4.73912,-0.41639 4.53307,-3.12302 4.53307,-3.74762 0,-0.6246 -0.20604,-2.08201 0,-2.70662 0.20605,-0.6246 -0.61814,-3.12302 -0.61814,-3.12302 z"
       style="fill:#2f2e41;stroke-width:0.17216691" />
    <ellipse
       ry="5.8296342"
       rx="5.7693701"
       id="circle235"
       cy="85.359795"
       cx="175.26466"
       style="fill:#ffb8b8;stroke-width:0.17216691" />
    <polygon
       transform="matrix(0.17127471,0,0,0.17306377,17.843286,77.656352)"
       id="polygon237"
       points="895.657,104.062 938.966,100.453 938.966,60.753 896.86,60.753 "
       style="fill:#ffb8b8" />
    <path
       id="path239"
       d="m 179.07657,91.293533 c 0,0 -3.50282,2.290214 -4.53307,2.706616 -1.03025,0.416402 -3.29679,-1.665609 -3.29679,-1.665609 0,0 -0.61814,0.416402 -0.61814,0.832803 0,0.416402 -0.4121,2.082013 -0.4121,2.082013 l -4.94517,16.447894 0.4121,11.65927 c 0,0 15.04157,1.45741 16.68995,-0.4164 1.6484,-1.87381 -0.82419,-28.73177 -0.82419,-28.73177 z"
       style="fill:#d0cde1;stroke-width:0.17216691" />
    <path
       id="path241"
       d="m 178.04634,95.665758 c 0,0 -5.56332,2.082012 -7.41776,0.208195 -1e-5,7e-6 2.67862,0.62461 7.41776,-0.208195 z"
       style="opacity:0.1;stroke-width:0.17216691" />
    <path
       id="path243"
       d="m 192.6758,140.84543 c -2.26653,1.4574 -9.6843,3.33122 -9.6843,3.33122 0,0 -0.80979,-17.62423 -3.70887,-20.40373 -2.88264,-2.76699 -7.5888,-22.71476 -3.35655,-26.183384 a 0.6341566,0.64078072 0 0 1 0.0597,-0.04997 l 2.67866,-6.246044 c 0,0 0.41208,-0.624605 1.23627,0.208196 a 22.4996,22.734621 0 0 1 1.85445,2.290213 l 0.11746,0.04788 5.65191,2.242331 -2.26653,10.201868 c 0,0 9.6843,33.104 7.41775,34.56141 z"
       style="fill:#575a89;stroke-width:0.17216691" />
    <path
       id="path245"
       d="m 181.87267,93.839829 -1.5598,5.781753 -4.38679,-2.032046 a 0.6341566,0.64078072 0 0 1 0.0598,-0.04997 l 2.67864,-6.246044 c 0,0 0.41208,-0.624605 1.23629,0.208196 a 22.4996,22.734621 0 0 1 1.85444,2.290213 z"
       style="opacity:0.1;stroke-width:0.17216691" />
    <path
       id="path247"
       d="m 171.14369,92.230438 -0.61815,7.078842 -0.0329,0.32271 -4.70617,45.27336 c 0,0 -4.12098,-1.45741 -5.56332,-3.12302 -1.44234,-1.66561 3.29678,-20.19552 3.29678,-20.19552 l 0.4121,-23.318537 c 0,0 3.65531,-2.60043 5.14916,-4.028701 0.35027,-0.333117 0.58107,-0.601691 0.62021,-0.759923 0.20605,-0.832809 1.44234,-1.249211 1.44234,-1.249211 z"
       style="fill:#575a89;stroke-width:0.17216691" />
    <path
       id="path249"
       d="m 171.14369,92.230438 -0.61815,7.078842 -0.0329,0.32271 -2.95476,-0.42681 1.54331,-4.965608 c 0.35027,-0.333117 0.58107,-0.601691 0.62021,-0.759923 0.20605,-0.832809 1.44234,-1.249211 1.44234,-1.249211 z"
       style="opacity:0.1;stroke-width:0.17216691" />
    <path
       id="path251"
       d="m 182.16731,127.31235 -2.26655,2.08201 c 0,0 1.03026,4.37222 2.26655,4.58042 0,0 0.82419,-1.2492 1.03023,-2.29021 0.20607,-1.04101 2.06051,-2.08201 2.06051,-2.08201 z"
       style="fill:#ffb8b8;stroke-width:0.17216691" />
    <path
       id="path253"
       d="m 184.84594,95.665758 2.67864,0.416403 c 0,0 8.86011,15.198689 7.82986,20.611919 -1.03024,5.41323 -9.2722,14.78229 -9.2722,14.78229 l -5.15122,-4.16402 7.62381,-10.41007 -3.91493,-12.49207 z"
       style="fill:#575a89;stroke-width:0.17216691" />
    <path
       id="path255"
       d="m 169.48227,86.014583 c 0,0 0,-5.141127 1.23642,-6.309559 h 1.48371 c 0,0 1.73098,-2.570564 3.95654,-1.635814 2.22556,0.93475 5.93481,2.570565 5.68754,5.141127 -0.24729,2.570563 -1.01849,4.231481 -1.01849,4.231481 0,0 -0.4121,0 -1.33065,-1.397432 -1.22744,-1.867342 1.60735,-1.285282 -2.10191,-1.986344 -3.70927,-0.701062 -5.93482,-1.635815 -6.42939,-0.701064 -0.49457,0.93475 -1.48377,2.657605 -1.48377,2.657605 z"
       style="fill:#2f2e41;stroke-width:0.17216691" />
    <path
       id="path257"
       d="m 172.17795,80.053907 c 0,0 0.19761,-1.502519 1.01106,-1.826041 z"
       style="fill:#2f2e41;stroke-width:0.17216691" />
    <path
       id="path259"
       d="m 172.1744,80.362985 c 0,0 -0.41275,-1.457223 0.20513,-2.082106 z"
       style="fill:#2f2e41;stroke-width:0.17216691" />
  </g>
</svg>
